# xmcd CD database file
#
# Track frame offsets:
#	150
#	11925
#	23800
#	36525
#	60300
#	72125
#	85300
#	96850
#	111625
#	126700
#	140662
#	158225
#
# Disc length: 2178 seconds
#
# Revision: 0
# Processed by: cddbd v1.5.1PL0 Copyright (c) Steve Scherf et al.
# Submitted via: CDex 1.51
#
DISCID=b208800c
DTITLE=Hoochie Coochie Blues Band - Hoochie Coochie Blues Band
DYEAR=1982
DGENRE=Blues
TTITLE0=Don't Go No Further
TTITLE1=Big Black Cadillac
TTITLE2=Shake My hand
TTITLE3=Sometimes I Wonder
TTITLE4=Almost
TTITLE5=Baby Don't You Worry
TTITLE6=Harp Stomp
TTITLE7=I Am Ready
TTITLE8=Going Down To The River
TTITLE9=I Don't Know
TTITLE10=I Am Your Hoochie Coochie Man
TTITLE11=Walter J. oder Tribute To Sämtliche Radiostations
EXTD=YEAR: 1982
EXTT0=
EXTT1=
EXTT2=
EXTT3=
EXTT4=
EXTT5=
EXTT6=
EXTT7=
EXTT8=
EXTT9=
EXTT10=
EXTT11=
PLAYORDER=
